<?xml version="1.0" encoding="iso-8859-1"?>
<!-- Generator: Adobe Illustrator 18.0.0, SVG Export Plug-In . SVG Version: 6.00 Build 0)  -->
<!DOCTYPE svg PUBLIC "-//W3C//DTD SVG 1.1//EN" "http://www.w3.org/Graphics/SVG/1.1/DTD/svg11.dtd">
<svg version="1.1" id="Capa_1" xmlns="http://www.w3.org/2000/svg" xmlns:xlink="http://www.w3.org/1999/xlink" x="0px" y="0px"
	 viewBox="0 0 489.664 489.664" style="enable-background:new 0 0 489.664 489.664;" xml:space="preserve">
<path d="M487.919,270.104L410.36,76.363c-0.829-2.056-2.822-3.412-5.046-3.412c-2.224,0-4.217,1.356-5.047,3.412l-77.565,193.741
	c-0.67,1.674-0.463,3.57,0.541,5.07c1.013,1.49,2.702,2.383,4.504,2.383h15.394v34.104h-36.121V204.606h15.377
	c1.802,0,3.492-0.893,4.505-2.383c1.005-1.499,1.211-3.395,0.542-5.07L249.886,3.413C249.057,1.355,247.065,0,244.84,0
	c-2.224,0-4.216,1.355-5.046,3.413l-77.566,193.74c-0.67,1.675-0.463,3.572,0.542,5.07c1.012,1.491,2.702,2.383,4.504,2.383h15.394
	V369.45h-36.129v-51.73h15.378c1.801,0,3.491-0.893,4.504-2.383c1.005-1.5,1.212-3.396,0.542-5.07L89.404,116.525
	c-0.829-2.057-2.822-3.412-5.046-3.412c-2.224,0-4.217,1.355-5.045,3.412L1.746,310.266c-0.67,1.674-0.462,3.57,0.55,5.07
	c1.004,1.49,2.695,2.383,4.496,2.383h15.394v171.945h445.31V277.557h15.378c1.801,0,3.491-0.893,4.504-2.383
	C488.381,273.674,488.588,271.778,487.919,270.104z M105.101,411.908c0,3.276-2.646,5.923-5.923,5.923H69.539
	c-3.276,0-5.923-2.646-5.923-5.923v-59.096c0-11.456,9.287-20.743,20.742-20.743s20.743,9.287,20.743,20.743V411.908z
	 M265.575,354.677c0,3.276-2.646,5.923-5.923,5.923h-29.64c-3.276,0-5.923-2.646-5.923-5.923v-59.096
	c0-11.456,9.287-20.743,20.743-20.743c11.456,0,20.743,9.287,20.743,20.743V354.677z M426.057,440.438
	c0,3.277-2.646,5.924-5.923,5.924h-29.64c-3.277,0-5.923-2.646-5.923-5.924v-59.096c0-11.455,9.288-20.742,20.743-20.742
	c11.456,0,20.743,9.287,20.743,20.742V440.438z"/>
<g>
</g>
<g>
</g>
<g>
</g>
<g>
</g>
<g>
</g>
<g>
</g>
<g>
</g>
<g>
</g>
<g>
</g>
<g>
</g>
<g>
</g>
<g>
</g>
<g>
</g>
<g>
</g>
<g>
</g>
</svg>
