<?xml version="1.0" encoding="iso-8859-1"?>
<!-- Generator: Adobe Illustrator 18.0.0, SVG Export Plug-In . SVG Version: 6.00 Build 0)  -->
<!DOCTYPE svg PUBLIC "-//W3C//DTD SVG 1.1//EN" "http://www.w3.org/Graphics/SVG/1.1/DTD/svg11.dtd">
<svg version="1.1" id="Capa_1" xmlns="http://www.w3.org/2000/svg" xmlns:xlink="http://www.w3.org/1999/xlink" x="0px" y="0px"
	 viewBox="0 0 485.84 485.84" style="enable-background:new 0 0 485.84 485.84;" xml:space="preserve">
<g>
	<path d="M42.77,171.453h172.511c2.695,0,5.189-1.42,6.553-3.736c1.365-2.316,1.411-5.182,0.109-7.537L135.674,3.927
		C134.339,1.506,131.787,0,129.025,0c-2.762,0-5.315,1.506-6.648,3.927L36.107,160.18c-1.301,2.355-1.255,5.221,0.11,7.537
		C37.582,170.033,40.072,171.453,42.77,171.453z"/>
	<path d="M461.952,317.647h-13.296c-4.84,0-8.758,3.928-8.758,8.767v10.718c0,2.175-1.763,3.936-3.938,3.936h-10.456
		c-2.173,0-3.936-1.761-3.936-3.936v-10.718c0-4.839-3.919-8.767-8.773-8.767h-13.296c-4.856,0-8.776,3.928-8.776,8.767v10.718
		c0,2.175-1.761,3.936-3.935,3.936h-10.457c-2.174,0-3.934-1.761-3.934-3.936V326.62c0-4.842-3.925-8.767-8.767-8.767h-13.518
		c-4.818,0-8.734,3.89-8.766,8.708c-0.027,4.105-0.049,8.355-0.067,10.594c-0.016,2.166-1.777,3.911-3.934,3.911h-10.488
		c-2.174,0-3.936-1.761-3.936-3.936v-10.718c0-4.839-3.92-8.767-8.759-8.767h-13.329c-4.839,0-8.759,3.928-8.759,8.767v10.718
		c0,2.175-1.761,3.936-3.935,3.936h-10.457c-2.172,0-3.934-1.761-3.934-3.936v-10.718c0-4.839-3.92-8.767-8.775-8.767h-13.298
		c-4.839,0-8.757,3.928-8.757,8.767v10.718c0,2.175-1.762,3.936-3.937,3.936h-10.409c-2.174,0-3.934-1.761-3.934-3.936v-71.188
		h0.109l18.17-24.27v-35.471c0-4.84-3.919-8.767-8.76-8.767h-13.298c-4.839,0-8.757,3.927-8.757,8.767v11.766
		c0,2.182-1.762,3.943-3.936,3.943h-10.457c-2.173,0-3.936-1.762-3.936-3.943v-11.766c0-4.84-3.918-8.767-8.774-8.767h-13.296
		c-4.856,0-8.773,3.927-8.773,8.767v11.766c0,2.182-1.762,3.943-3.936,3.943h-10.457c-2.174,0-3.936-1.762-3.936-3.943v-11.766
		c0-4.84-3.92-8.767-8.758-8.767h-13.614c-4.855,0-8.775,3.927-8.775,8.767v11.766c0,2.182-1.761,3.943-3.936,3.943H99.068
		c-2.174,0-3.934-1.762-3.934-3.943v-11.766c0-4.84-3.922-8.767-8.76-8.767H72.666c-4.634,0-8.379,3.745-8.379,8.37v12.162
		c0,2.182-1.761,3.943-3.934,3.943H49.896c-2.174,0-3.936-1.762-3.936-3.943v-12.162c0-4.625-3.744-8.37-8.362-8.37H23.509
		c-4.636,0-8.38,3.745-8.38,8.37v35.867l18.17,24.27h0.111V485.84h437.3V326.413C470.71,321.574,466.792,317.647,461.952,317.647z
		 M110.254,437.547c0,1.961-1.586,3.555-3.554,3.555h-34.18c-1.966,0-3.554-1.594-3.554-3.555v-31.123
		c0-11.393,9.234-20.635,20.644-20.635c11.409,0,20.644,9.242,20.644,20.635V437.547z M109.269,341.066
		c-2.268,0-4.108-1.84-4.108-4.109v-35.986c0-13.17,10.677-23.857,23.864-23.857c13.186,0,23.865,10.688,23.865,23.864v35.979
		c0,2.27-1.842,4.109-4.11,4.109H109.269z M191.494,437.547c0,1.961-1.588,3.555-3.553,3.555h-34.18
		c-1.968,0-3.553-1.594-3.553-3.555v-31.123c0-11.393,9.234-20.635,20.644-20.635c11.407,0,20.642,9.242,20.642,20.635V437.547z
		 M272.734,437.547c0,1.961-1.586,3.555-3.555,3.555h-34.176c-1.969,0-3.555-1.594-3.555-3.555v-31.123
		c0-11.393,9.234-20.635,20.644-20.635s20.642,9.242,20.642,20.635V437.547z M353.976,437.547c0,1.961-1.588,3.555-3.555,3.555
		h-34.178c-1.967,0-3.555-1.594-3.555-3.555v-31.123c0-11.393,9.234-20.635,20.642-20.635c11.409,0,20.646,9.242,20.646,20.635
		V437.547z M435.214,437.547c0,1.961-1.585,3.555-3.552,3.555h-34.179c-1.969,0-3.557-1.594-3.557-3.555v-31.123
		c0-11.393,9.235-20.635,20.645-20.635c11.41,0,20.643,9.242,20.643,20.635V437.547z"/>
</g>
<g>
</g>
<g>
</g>
<g>
</g>
<g>
</g>
<g>
</g>
<g>
</g>
<g>
</g>
<g>
</g>
<g>
</g>
<g>
</g>
<g>
</g>
<g>
</g>
<g>
</g>
<g>
</g>
<g>
</g>
</svg>
