<?xml version="1.0" encoding="iso-8859-1"?>
<!-- Generator: Adobe Illustrator 18.0.0, SVG Export Plug-In . SVG Version: 6.00 Build 0)  -->
<!DOCTYPE svg PUBLIC "-//W3C//DTD SVG 1.1//EN" "http://www.w3.org/Graphics/SVG/1.1/DTD/svg11.dtd">
<svg version="1.1" id="Capa_1" xmlns="http://www.w3.org/2000/svg" xmlns:xlink="http://www.w3.org/1999/xlink" x="0px" y="0px"
	 viewBox="0 0 484.256 484.256" style="enable-background:new 0 0 484.256 484.256;" xml:space="preserve">
<g>
	<path d="M13.127,174.39h175.461c2.742,0,5.278-1.444,6.667-3.801c1.387-2.356,1.436-5.27,0.113-7.665L107.62,3.995
		C106.265,1.534,103.665,0,100.857,0s-5.407,1.534-6.762,3.995L6.349,162.924c-1.324,2.395-1.275,5.309,0.111,7.665
		C7.847,172.945,10.382,174.39,13.127,174.39z"/>
	<g>
		<path d="M471.181,289.152h-13.492c-4.94,0-8.925,3.994-8.925,8.916v15.979h-18.64v-15.979c0-4.922-3.988-8.916-8.91-8.916h-13.557
			c-4.922,0-8.908,3.994-8.908,8.916v15.979h-18.642l-0.227-16.1c-0.063-4.873-4.031-8.795-8.906-8.795H357.39
			c-4.913,0-8.898,3.973-8.916,8.886c-0.029,8.38-0.047,16.009-0.047,16.009h-18.641v-15.979c0-4.922-3.986-8.916-8.925-8.916
			h-13.524c-4.939,0-8.924,3.994-8.924,8.916v15.979h-18.641v-15.979c0-4.922-3.986-8.916-8.909-8.916h-13.524
			c-4.939,0-8.924,3.994-8.924,8.916v36.08l18.478,24.684h0.114v69.68H166.962v-58.455l25.887-41.945
			c3.082-4.986,4.711-10.74,4.711-16.605v-16.254c0-4.268-3.455-7.73-7.73-7.73h-22.867v-97.778H34.749v97.778H11.881
			c-4.276,0-7.73,3.462-7.73,7.73v16.254c0,5.865,1.629,11.619,4.711,16.605l25.887,41.945v114.199h426.764V358.832h0.113
			l18.478-24.684v-36.08C480.104,293.147,476.118,289.152,471.181,289.152z M125.13,423.703c0,2.308-1.872,4.18-4.181,4.18H80.764
			c-2.308,0-4.181-1.872-4.181-4.18v-56.688c0-2.308,1.873-4.179,4.181-4.179h40.186c2.309,0,4.181,1.871,4.181,4.179V423.703z
			 M125.13,274.967c0,2.309-1.872,4.181-4.181,4.181H80.764c-2.308,0-4.181-1.872-4.181-4.181v-36.602
			c0-13.396,10.862-24.265,24.274-24.265c13.411,0,24.272,10.869,24.272,24.273V274.967z M388.532,423.703
			c0,2.308-1.872,4.18-4.18,4.18h-40.187c-2.308,0-4.179-1.872-4.179-4.18v-56.688c0-2.308,1.871-4.179,4.179-4.179h40.187
			c2.308,0,4.18,1.871,4.18,4.179V423.703z"/>
	</g>
</g>
<g>
</g>
<g>
</g>
<g>
</g>
<g>
</g>
<g>
</g>
<g>
</g>
<g>
</g>
<g>
</g>
<g>
</g>
<g>
</g>
<g>
</g>
<g>
</g>
<g>
</g>
<g>
</g>
<g>
</g>
</svg>
