<?xml version="1.0" encoding="iso-8859-1"?>
<!-- Generator: Adobe Illustrator 18.0.0, SVG Export Plug-In . SVG Version: 6.00 Build 0)  -->
<!DOCTYPE svg PUBLIC "-//W3C//DTD SVG 1.1//EN" "http://www.w3.org/Graphics/SVG/1.1/DTD/svg11.dtd">
<svg version="1.1" id="Capa_1" xmlns="http://www.w3.org/2000/svg" xmlns:xlink="http://www.w3.org/1999/xlink" x="0px" y="0px"
	 viewBox="0 0 492.124 492.124" style="enable-background:new 0 0 492.124 492.124;" xml:space="preserve">
<path d="M482.56,450.601h-15.042V280.408v-47.162v-59.128c0-5.287-4.277-9.564-9.564-9.564h-12.223v-57.59
	c0-5.287-4.277-9.564-9.563-9.564h-12.993V72.617l61.059-20.425c1.73-0.576,2.892-2.186,2.892-4.005
	c0-1.818-1.161-3.428-2.892-4.004l-61.059-20.425V12.816c0-4.533-3.668-8.202-8.202-8.202c-4.533,0-8.202,3.669-8.202,8.202V97.4
	h-12.992c-5.287,0-9.564,4.277-9.564,9.564v57.59h-12.223c-5.286,0-9.563,4.278-9.563,9.564v59.128h-18.967v-29.395
	c0-5.287-4.278-9.564-9.564-9.564h-32.135c-5.287,0-9.564,4.277-9.564,9.564v29.395h-19.992v-29.395
	c0-5.287-4.277-9.564-9.564-9.564h-32.135c-5.287,0-9.564,4.277-9.564,9.564v29.395H200.95v-29.395c0-5.287-4.277-9.564-9.563-9.564
	h-32.136c-5.286,0-9.564,4.277-9.564,9.564v29.395h-19.992v-59.128c0-5.287-4.277-9.564-9.564-9.564h-12.223v-57.59
	c0-5.287-4.277-9.564-9.563-9.564H85.353V72.617l61.059-20.425c1.73-0.576,2.892-2.186,2.892-4.005c0-1.818-1.162-3.428-2.892-4.004
	L85.353,23.758V12.816c0-4.533-3.668-8.202-8.202-8.202s-8.202,3.669-8.202,8.202V97.4H55.957c-5.286,0-9.564,4.277-9.564,9.564
	v57.59H34.17c-5.287,0-9.564,4.278-9.564,9.564v59.128v47.162v170.193H9.564c-5.287,0-9.564,4.277-9.564,9.564v17.782
	c0,5.286,4.277,9.563,9.564,9.563h175.495v-70.742c0-33.978,27.538-61.516,61.515-61.516c33.978,0,61.516,27.538,61.516,61.516
	v70.742h174.47c5.286,0,9.563-4.278,9.563-9.563v-17.782C492.124,454.878,487.846,450.601,482.56,450.601z M154.926,355.252
	c0,5.279-4.277,9.556-9.564,9.556h-47.45c-5.287,0-9.564-4.277-9.564-9.556v-41.891c0-18.383,14.906-33.289,33.289-33.289
	s33.289,14.906,33.289,33.289V355.252z M404.801,355.252c0,5.279-4.277,9.556-9.565,9.556h-47.45c-5.287,0-9.564-4.277-9.564-9.556
	v-41.891c0-18.383,14.906-33.289,33.289-33.289c18.382,0,33.29,14.906,33.29,33.289V355.252z"/>
<g>
</g>
<g>
</g>
<g>
</g>
<g>
</g>
<g>
</g>
<g>
</g>
<g>
</g>
<g>
</g>
<g>
</g>
<g>
</g>
<g>
</g>
<g>
</g>
<g>
</g>
<g>
</g>
<g>
</g>
</svg>
