<?xml version="1.0" encoding="iso-8859-1"?>
<!-- Generator: Adobe Illustrator 18.0.0, SVG Export Plug-In . SVG Version: 6.00 Build 0)  -->
<!DOCTYPE svg PUBLIC "-//W3C//DTD SVG 1.1//EN" "http://www.w3.org/Graphics/SVG/1.1/DTD/svg11.dtd">
<svg version="1.1" id="Capa_1" xmlns="http://www.w3.org/2000/svg" xmlns:xlink="http://www.w3.org/1999/xlink" x="0px" y="0px"
	 viewBox="0 0 491.67 491.67" style="enable-background:new 0 0 491.67 491.67;" xml:space="preserve">
<g>
	<path d="M365.323,292.053c-5.929,0-10.735,4.807-10.735,10.735v187.125H491.67V302.788c0-5.929-4.807-10.735-10.735-10.735H365.323
		z"/>
	<path d="M0,489.32h137.083V302.195c0-5.929-4.807-10.735-10.735-10.735H10.735C4.807,291.46,0,296.267,0,302.195V489.32z"/>
	<path d="M320.803,206.587h-16.534V184.5h-27.815v22.087H259.92V184.5h-0.305h-27.512h-0.288v22.087h-16.532V184.5h-27.818v22.087
		h-16.531V184.5h-27.818v22.087v17.822l16.391,21.894h0.096v243.609h172.518V246.303h0.094l16.39-21.894v-17.822V184.5h-27.8
		V206.587z M267.379,419.235h-43.053v-36.171c0-11.892,9.635-21.527,21.523-21.527c11.895,0,21.529,9.636,21.529,21.527V419.235z
		 M267.379,320.901h-43.053V284.73c0-11.892,9.635-21.526,21.523-21.526c11.895,0,21.529,9.635,21.529,21.526V320.901z"/>
	<path d="M125.783,171.697h240.136c1.089,0,2.049-0.752,2.29-1.817c0.239-1.064-0.289-2.161-1.264-2.633l-23.56-11.363
		L253.965,6.366c-1.712-2.857-4.784-4.609-8.115-4.609c-3.326,0-6.4,1.753-8.112,4.609l-89.42,149.517l-23.56,11.363
		c-0.976,0.472-1.503,1.568-1.262,2.633C123.734,170.944,124.695,171.697,125.783,171.697z M224.326,114.695
		c0-11.891,9.635-21.526,21.523-21.526c11.895,0,21.529,9.635,21.529,21.526v19.782h-43.053V114.695z"/>
</g>
<g>
</g>
<g>
</g>
<g>
</g>
<g>
</g>
<g>
</g>
<g>
</g>
<g>
</g>
<g>
</g>
<g>
</g>
<g>
</g>
<g>
</g>
<g>
</g>
<g>
</g>
<g>
</g>
<g>
</g>
</svg>
