<?xml version="1.0" encoding="iso-8859-1"?>
<!-- Generator: Adobe Illustrator 18.0.0, SVG Export Plug-In . SVG Version: 6.00 Build 0)  -->
<!DOCTYPE svg PUBLIC "-//W3C//DTD SVG 1.1//EN" "http://www.w3.org/Graphics/SVG/1.1/DTD/svg11.dtd">
<svg version="1.1" id="Capa_1" xmlns="http://www.w3.org/2000/svg" xmlns:xlink="http://www.w3.org/1999/xlink" x="0px" y="0px"
	 viewBox="0 0 492.889 492.889" style="enable-background:new 0 0 492.889 492.889;" xml:space="preserve">
<g>
	<path d="M377.813,251.37h-10.762c-5.206,0-9.417-4.213-9.417-9.418V210.68c0-9.381-7.634-17.016-17.017-17.016
		c-9.38,0-17.016,7.634-17.016,17.016v31.271c0,5.205-4.212,9.418-9.418,9.418h-41.315c-5.204,0-9.418-4.213-9.418-9.418V210.68
		c0-9.381-7.634-17.016-17.017-17.016c-9.381,0-17.016,7.634-17.016,17.016v31.271c0,5.205-4.211,9.418-9.418,9.418h-41.314
		c-5.206,0-9.42-4.213-9.42-9.418V210.68c0-9.381-7.632-17.016-17.014-17.016c-9.383,0-17.016,7.634-17.016,17.016v31.271
		c0,5.205-4.213,9.418-9.419,9.418h-10.724L74.459,479.156c-0.607,3.403,0.332,6.898,2.538,9.548
		c2.229,2.657,5.502,4.185,8.96,4.185h92.785V437.75c0-37.389,30.313-67.694,67.692-67.694c37.38,0,67.696,30.306,67.696,67.694
		v55.139h92.802c3.46,0,6.732-1.527,8.958-4.185c2.209-2.649,3.145-6.145,2.54-9.548L377.813,251.37z"/>
	<path d="M385.448,232.533c1.251,0,2.262-1.012,2.262-2.262v-76.837H105.161v76.837c0,1.251,1.012,2.262,2.264,2.262h8.976V210.68
		c0-19.765,16.078-35.852,35.853-35.852s35.854,16.086,35.854,35.852v21.853h22.478V210.68c0-19.765,16.076-35.852,35.85-35.852
		c19.775,0,35.852,16.086,35.852,35.852v21.853h22.481V210.68c0-19.765,16.076-35.852,35.851-35.852
		c19.775,0,35.852,16.086,35.852,35.852v21.853H385.448z"/>
	<path d="M86.324,134.929c2.337,1.076,4.874,1.774,7.616,1.774h304.991c2.739,0,5.278-0.698,7.614-1.792
		c6.219-2.889,10.597-9.106,10.597-16.418c0-60.842,0-46.889,0-108.862c0-5.316-4.323-9.63-9.64-9.63h-41.774
		c-5.316,0-9.621,4.314-9.621,9.63v32.048c0,3.736-3.028,6.765-6.765,6.765h-18.901c-3.736,0-6.765-3.029-6.765-6.765V9.63
		c0-5.316-4.322-9.63-9.62-9.63h-41.795c-5.297,0-9.62,4.314-9.62,9.63v32.048c0,3.736-3.028,6.765-6.765,6.765h-18.901
		c-3.736,0-6.765-3.029-6.765-6.765V9.63c0-5.316-4.305-9.63-9.64-9.63h-41.756c-5.335,0-9.64,4.314-9.64,9.63v32.048
		c0,3.736-3.028,6.765-6.765,6.765h-18.883c-3.736,0-6.765-3.029-6.765-6.765V9.63c0-5.316-4.322-9.63-9.639-9.63H85.348
		c-5.315,0-9.62,4.314-9.62,9.63c0,12.122,0,22.313,0,31.179c0,34.675,0,46.108,0,45.786c0,9.032,0,19.481,0,31.897
		C75.728,125.813,80.088,132.032,86.324,134.929z"/>
</g>
<g>
</g>
<g>
</g>
<g>
</g>
<g>
</g>
<g>
</g>
<g>
</g>
<g>
</g>
<g>
</g>
<g>
</g>
<g>
</g>
<g>
</g>
<g>
</g>
<g>
</g>
<g>
</g>
<g>
</g>
</svg>
