<?xml version="1.0" encoding="iso-8859-1"?>
<!-- Generator: Adobe Illustrator 18.0.0, SVG Export Plug-In . SVG Version: 6.00 Build 0)  -->
<!DOCTYPE svg PUBLIC "-//W3C//DTD SVG 1.1//EN" "http://www.w3.org/Graphics/SVG/1.1/DTD/svg11.dtd">
<svg version="1.1" id="Capa_1" xmlns="http://www.w3.org/2000/svg" xmlns:xlink="http://www.w3.org/1999/xlink" x="0px" y="0px"
	 viewBox="0 0 483.008 483.008" style="enable-background:new 0 0 483.008 483.008;" xml:space="preserve">
<g>
	<path d="M162.722,219.844H319.64c2.14,0,4.113-1.212,5.082-3.135c0.971-1.923,0.768-4.222-0.518-5.953l-77.548-104.709V65.961
		l88.182-22.59c1.037-0.259,1.772-1.195,1.772-2.266c0-1.069-0.734-2.006-1.772-2.266L246.64,16.235V5.484
		c0-3.027-2.459-5.484-5.485-5.484c-3.025,0.008-5.483,2.457-5.483,5.484l0.017,100.588l-77.53,104.684
		c-1.289,1.731-1.489,4.03-0.52,5.953C158.608,218.632,160.581,219.844,162.722,219.844z"/>
	<path d="M455.562,176.881c-4.057,0-7.345,3.288-7.345,7.345v18.446H428.89v-18.446c0-4.057-3.288-7.345-7.345-7.345h-17.801
		c-4.057,0-7.345,3.288-7.345,7.345v18.446h-19.294v-18.446c0-4.057-3.288-7.345-7.345-7.345h-17.822
		c-4.054,0-7.341,3.283-7.345,7.337l-0.192,184.567h-38.021V242.131c0-3.437-2.776-6.211-6.204-6.211H182.184
		c-3.427,0-6.204,2.774-6.204,6.211v126.654h-37.367l0.091-77.191c0.002-1.949-0.771-3.82-2.148-5.199
		c-1.377-1.379-3.247-2.154-5.196-2.154h-18.141c-4.057,0-7.345,3.288-7.345,7.345v19.466H86.578v-18.441
		c0-4.064-3.294-7.35-7.34-7.35H61.431c-4.047,0-7.341,3.286-7.341,7.35v18.441H34.763v-18.441c0-4.064-3.293-7.35-7.341-7.35H9.615
		c-4.063,0-7.34,3.277-7.357,7.332l-0.3,190.416h478.863l0.229-298.776c0.002-1.949-0.772-3.818-2.149-5.197
		c-1.377-1.379-3.246-2.153-5.195-2.153H455.562z M92.095,395.631c0,3.436-2.774,6.211-6.203,6.211h-31.1
		c-3.427,0-6.201-2.775-6.201-6.211v-27.738c0-12.014,9.729-21.754,21.751-21.754c12.005,0,21.753,9.74,21.753,21.754V395.631z
		 M262.924,327.505c0,3.436-2.776,6.211-6.202,6.211h-31.1c-3.429,0-6.204-2.775-6.204-6.211v-27.739
		c0-12.013,9.73-21.752,21.754-21.752c12.004,0,21.752,9.739,21.752,21.752V327.505z M434.421,287.251
		c0,3.436-2.773,6.212-6.201,6.212h-31.1c-3.429,0-6.202-2.775-6.202-6.212v-27.738c0-12.013,9.73-21.753,21.751-21.753
		c12.007,0,21.752,9.74,21.752,21.753V287.251z"/>
</g>
<g>
</g>
<g>
</g>
<g>
</g>
<g>
</g>
<g>
</g>
<g>
</g>
<g>
</g>
<g>
</g>
<g>
</g>
<g>
</g>
<g>
</g>
<g>
</g>
<g>
</g>
<g>
</g>
<g>
</g>
</svg>
