<?xml version="1.0" encoding="iso-8859-1"?>
<!-- Generator: Adobe Illustrator 18.0.0, SVG Export Plug-In . SVG Version: 6.00 Build 0)  -->
<!DOCTYPE svg PUBLIC "-//W3C//DTD SVG 1.1//EN" "http://www.w3.org/Graphics/SVG/1.1/DTD/svg11.dtd">
<svg version="1.1" id="Capa_1" xmlns="http://www.w3.org/2000/svg" xmlns:xlink="http://www.w3.org/1999/xlink" x="0px" y="0px"
	 viewBox="0 0 495 495" style="enable-background:new 0 0 495 495;" xml:space="preserve">
<g>
	<path d="M96.413,182.275h82.328c2.092,0,4.034-1.075,5.15-2.85c1.117-1.767,1.242-3.984,0.333-5.876l-41.172-85.687
		c-1.008-2.117-3.143-3.46-5.484-3.451c-2.343,0-4.476,1.342-5.484,3.451l-41.156,85.687c-0.908,1.892-0.783,4.109,0.334,5.884
		C92.38,181.199,94.321,182.275,96.413,182.275z"/>
	<path d="M316.259,182.275h82.329c2.091,0,4.033-1.075,5.149-2.85c1.118-1.767,1.243-3.984,0.335-5.876l-41.174-85.687
		c-1.008-2.117-3.141-3.46-5.482-3.451c-2.343,0-4.476,1.342-5.484,3.451l-41.157,85.687c-0.908,1.892-0.783,4.109,0.334,5.884
		C312.227,181.199,314.168,182.275,316.259,182.275z"/>
	<path d="M487.399,303.866h-4.75v-17.678c0-3.142-2.541-5.684-5.684-5.684h-17.17c-3.141,0-5.683,2.542-5.683,5.684v17.678H437.91
		v-17.678c0-3.142-2.542-5.684-5.684-5.684h-17.162c-3.141,0-5.684,2.542-5.684,5.684v17.678h-10.536v-104.79
		c0-4.201-3.399-7.601-7.6-7.601h-67.634c-4.201,0-7.6,3.4-7.6,7.601v70.643H306.5V252.05c0-3.142-2.542-5.684-5.683-5.684h-17.162
		c-3.141,0-5.684,2.542-5.684,5.684v17.669h-16.203V252.05c0-3.142-2.543-5.684-5.684-5.684h-17.17
		c-3.141,0-5.683,2.542-5.683,5.684v17.669h-16.202V252.05c0-3.142-2.542-5.684-5.685-5.684h-17.159
		c-3.143,0-5.687,2.542-5.687,5.684v17.669h-9.508v-70.643c0-4.201-3.4-7.601-7.602-7.601h-67.642c-4.2,0-7.6,3.4-7.6,7.601v104.79
		H85.62v-17.678c0-3.142-2.541-5.684-5.684-5.684H62.775c-3.142,0-5.684,2.542-5.684,5.684v17.678H40.888v-17.678
		c0-3.142-2.542-5.684-5.684-5.684H18.035c-3.142,0-5.684,2.542-5.684,5.684v17.678h-4.75c-4.201,0-7.601,3.4-7.601,7.601v99.122
		h219.579v-34.58c0-15.418,12.502-27.92,27.92-27.92c15.419,0,27.92,12.501,27.92,27.92v34.58H495v-99.122
		C495,307.266,491.6,303.866,487.399,303.866z M152.871,246.558h-30.58v-19.561c0-8.452,6.843-15.294,15.294-15.294
		c8.442,0,15.285,6.842,15.285,15.294V246.558z M372.716,246.558h-30.577v-19.561c0-8.452,6.843-15.294,15.292-15.294
		c8.443,0,15.285,6.842,15.285,15.294V246.558z"/>
</g>
<g>
</g>
<g>
</g>
<g>
</g>
<g>
</g>
<g>
</g>
<g>
</g>
<g>
</g>
<g>
</g>
<g>
</g>
<g>
</g>
<g>
</g>
<g>
</g>
<g>
</g>
<g>
</g>
<g>
</g>
</svg>
