<?xml version="1.0" encoding="iso-8859-1"?>
<!-- Generator: Adobe Illustrator 18.0.0, SVG Export Plug-In . SVG Version: 6.00 Build 0)  -->
<!DOCTYPE svg PUBLIC "-//W3C//DTD SVG 1.1//EN" "http://www.w3.org/Graphics/SVG/1.1/DTD/svg11.dtd">
<svg version="1.1" id="Capa_1" xmlns="http://www.w3.org/2000/svg" xmlns:xlink="http://www.w3.org/1999/xlink" x="0px" y="0px"
	 viewBox="0 0 481.897 481.897" style="enable-background:new 0 0 481.897 481.897;" xml:space="preserve">
<g>
	<path d="M337.735,256.812v-5.357V194.7v-16.064h16.063h30.479h16.063h2.071c8.525,0,15.436-6.91,15.436-15.436v-51.357v-9.373
		V71.32c0-2.831-2.295-5.126-5.125-5.126h-18.778c-2.831,0-5.126,2.295-5.126,5.126v26.023c0,2.831-2.295,5.126-5.125,5.126h-14.847
		c-2.831,0-5.125-2.295-5.125-5.126V71.32c0-2.831-2.295-5.126-5.125-5.126h-18.777c-2.831,0-5.125,2.295-5.125,5.126v26.023
		c0,2.831-2.295,5.126-5.126,5.126h-14.848c-2.831,0-5.126-2.295-5.126-5.126V71.32c0-2.831-2.295-5.126-5.125-5.126H285.69
		c-2.831,0-5.125,2.295-5.125,5.126v26.023c0,2.831-2.295,5.126-5.125,5.126h-14.855c-2.831,0-5.126-2.295-5.126-5.126V71.32
		c0-2.831-2.295-5.126-5.126-5.126h-18.77c-2.831,0-5.125,2.295-5.125,5.126v26.023c0,2.831-2.295,5.126-5.126,5.126h-14.856
		c-2.831,0-5.125-2.295-5.125-5.126V71.32c0-2.831-2.295-5.126-5.126-5.126h-18.777c-2.831,0-5.126,2.295-5.126,5.126v26.023
		c0,2.831-2.295,5.126-5.125,5.126h-14.848c-2.831,0-5.126-2.295-5.126-5.126V71.32c0-2.831-2.295-5.126-5.125-5.126h-18.777
		c-2.831,0-5.125,2.295-5.125,5.126v26.023c0,2.831-2.295,5.126-5.126,5.126H98.203c-2.831,0-5.125-2.295-5.125-5.126V71.32
		c0-2.831-2.295-5.126-5.125-5.126H69.175c-2.831,0-5.126,2.295-5.126,5.126v31.149v9.373v51.75c0,8.308,6.735,15.043,15.043,15.043
		h16.064h2.369h30.15h0.33h16.047l0.015,16.049l0.063,56.754l0.007,5.357l-3.216,4.282L128.71,277.4l15.349,136.506l0.204,1.796
		h193.37l0.204-1.796l15.35-136.498l-12.236-16.315L337.735,256.812z M281.028,280.231c0,3.733-3.028,6.762-6.76,6.762H207.63
		c-3.734,0-6.761-3.028-6.761-6.762v-66.746c0-22.134,17.944-40.08,40.079-40.08c22.134,0,40.08,17.946,40.08,40.08V280.231z"/>
	<path d="M128.066,251.455l-0.351-50.749c-0.023-3.324-2.724-6.006-6.047-6.006h-18.427c-3.34,0-6.047,2.707-6.047,6.047v18.15
		H79.092v-18.15c0-3.34-2.707-6.047-6.047-6.047H54.661c-3.34,0-6.047,2.707-6.047,6.047v18.15H30.479v-18.15
		c0-3.34-2.708-6.047-6.047-6.047H6.047c-3.34,0-6.047,2.707-6.047,6.047v50.708l16.063,21.413L0,415.702h64.049h64.048
		l-16.063-142.834L128.066,251.455z"/>
	<path d="M465.833,272.866l15.993-21.412l-0.02-50.709c-0.001-3.339-2.708-6.045-6.047-6.045H457.04
		c-3.34,0-6.047,2.707-6.047,6.047v18.149h-18.102v-18.149c0-3.34-2.707-6.047-6.047-6.047H408.46c-3.34,0-6.047,2.707-6.047,6.047
		v18.149h-18.134v-18.149c0-3.34-2.707-6.047-6.047-6.047h-18.384c-3.34,0-6.047,2.707-6.047,6.047v50.707l16.063,21.412
		L353.799,415.7h64.048h64.049L465.833,272.866z"/>
</g>
<g>
</g>
<g>
</g>
<g>
</g>
<g>
</g>
<g>
</g>
<g>
</g>
<g>
</g>
<g>
</g>
<g>
</g>
<g>
</g>
<g>
</g>
<g>
</g>
<g>
</g>
<g>
</g>
<g>
</g>
</svg>
