<?xml version="1.0" encoding="iso-8859-1"?>
<!-- Generator: Adobe Illustrator 18.0.0, SVG Export Plug-In . SVG Version: 6.00 Build 0)  -->
<!DOCTYPE svg PUBLIC "-//W3C//DTD SVG 1.1//EN" "http://www.w3.org/Graphics/SVG/1.1/DTD/svg11.dtd">
<svg version="1.1" id="Capa_1" xmlns="http://www.w3.org/2000/svg" xmlns:xlink="http://www.w3.org/1999/xlink" x="0px" y="0px"
	 viewBox="0 0 489.038 489.038" style="enable-background:new 0 0 489.038 489.038;" xml:space="preserve">
<g>
	<path d="M151.607,278.441h21.905h142.028h16.389h5.517c6.289,0,11.385-5.098,11.385-11.387c0-23.738,0-76.08,0-74.472
		c0-2.871-2.33-5.21-5.225-5.21h-22.854c-2.878,0-5.211,2.332-5.211,5.218v39.339L249.538,3.763C248.879,1.535,246.835,0,244.519,0
		c-2.316,0-4.357,1.535-5.017,3.763L173.513,231.93v-39.339c0-2.886-2.33-5.218-5.209-5.218h-22.855
		c-2.877,0-5.226,2.339-5.226,5.21c0,22.499,0,55.165,0,74.472C140.223,273.343,145.322,278.441,151.607,278.441z"/>
	<path d="M173.513,472.046c0,9.384,7.607,16.992,16.991,16.992H298.55c9.384,0,16.991-7.607,16.991-16.992v-15.375H173.513V472.046z
		"/>
	<path d="M173.513,344.252c0.1,0.096,0.242,0.136,0.338,0.233c3.459-3.514,8.252-5.702,13.541-5.702h19.993
		c5.307,0,10.116,2.188,13.573,5.709c3.442-3.522,8.25-5.717,13.557-5.717h20.008c5.115,0,10.086,2.098,13.236,5.363
		c0.113,0.113,0.226,0.225,0.338,0.337c3.443-3.514,8.234-5.693,13.541-5.693h19.975c5.309,0,10.119,2.188,13.559,5.709
		c0.113-0.105,0.259-0.153,0.37-0.258v-42.072H173.513V344.252z"/>
	<path d="M348.735,355.245h-19.99c-1.398,0-2.525,1.118-2.525,2.517v27.261h-12.317h-9.763V357.77c0-1.392-1.109-2.518-2.527-2.518
		h-19.975c-1.413,0-2.523,1.126-2.523,2.518v27.252h-22.081l0.014-27.261c0-0.667-0.257-1.311-0.738-1.777
		c-0.468-0.482-1.11-0.74-1.786-0.74h-20.008c-1.382,0-2.508,1.118-2.508,2.517l-0.016,27.261h-22.082V357.77
		c0-1.392-1.125-2.518-2.524-2.518h-19.993c-1.382,0-2.49,1.126-2.49,2.518v27.252h-9.732h-12.35v-27.261
		c0-1.399-1.126-2.517-2.523-2.517h-19.993c-1.399,0-2.525,1.118-2.525,2.517l0.018,71.054c0,6.289,5.114,11.387,11.401,11.387
		h190.662c6.306,0,11.402-5.098,11.402-11.387v-71.054C351.261,356.362,350.136,355.245,348.735,355.245z"/>
</g>
<g>
</g>
<g>
</g>
<g>
</g>
<g>
</g>
<g>
</g>
<g>
</g>
<g>
</g>
<g>
</g>
<g>
</g>
<g>
</g>
<g>
</g>
<g>
</g>
<g>
</g>
<g>
</g>
<g>
</g>
</svg>
