<?xml version="1.0" encoding="iso-8859-1"?>
<!-- Generator: Adobe Illustrator 18.0.0, SVG Export Plug-In . SVG Version: 6.00 Build 0)  -->
<!DOCTYPE svg PUBLIC "-//W3C//DTD SVG 1.1//EN" "http://www.w3.org/Graphics/SVG/1.1/DTD/svg11.dtd">
<svg version="1.1" id="Capa_1" xmlns="http://www.w3.org/2000/svg" xmlns:xlink="http://www.w3.org/1999/xlink" x="0px" y="0px"
	 viewBox="0 0 489.712 489.712" style="enable-background:new 0 0 489.712 489.712;" xml:space="preserve">
<g>
	<path d="M174.193,155.308c1.003-2.001,0.804-4.393-0.526-6.185L92.172,39.094c-1.116-1.506-2.886-2.399-4.759-2.399
		c-1.873,0-3.643,0.893-4.758,2.399L1.16,149.123c-1.331,1.792-1.53,4.184-0.526,6.185c1.004,1.992,3.052,3.251,5.285,3.251h162.99
		C171.14,158.559,173.188,157.299,174.193,155.308z"/>
	<path d="M488.552,149.123L407.057,39.094c-1.116-1.506-2.885-2.399-4.757-2.399c-1.874,0-3.643,0.893-4.759,2.399l-81.495,110.029
		c-1.332,1.792-1.531,4.184-0.526,6.185c1.005,1.992,3.053,3.251,5.285,3.251h162.99c2.232,0,4.279-1.26,5.284-3.251
		C490.082,153.306,489.883,150.915,488.552,149.123z"/>
	<path d="M474.15,178.285H330.456c-3.276,0-5.922,2.646-5.922,5.922v40.289h-44.991v-41.158c0-3.276-2.647-5.922-5.923-5.922
		h-57.528c-3.275,0-5.922,2.646-5.922,5.922v41.158h-44.984v-40.289c0-3.276-2.646-5.922-5.921-5.922H15.57
		c-3.276,0-5.922,2.646-5.922,5.922v81.814l22.556,23.935v51.846l22.564,17.112v79.781c0,7.906,6.415,14.322,14.322,14.322h114.045
		v-71.7c0-33.81,27.401-61.211,61.211-61.211c33.809,0,61.211,27.401,61.211,61.211v71.7h115.065
		c7.906,0,14.322-6.416,14.322-14.322v-79.773l22.565-17.12v-51.846l22.563-23.935v-81.814
		C480.072,180.931,477.426,178.285,474.15,178.285z M108.152,295.63H66.675v-65.005c0-11.454,9.284-20.739,20.738-20.739
		c11.453,0,20.739,9.285,20.739,20.739V295.63z M423.037,295.63H381.56v-65.005c0-11.454,9.286-20.739,20.739-20.739
		c11.452,0,20.737,9.285,20.737,20.739V295.63z"/>
</g>
<g>
</g>
<g>
</g>
<g>
</g>
<g>
</g>
<g>
</g>
<g>
</g>
<g>
</g>
<g>
</g>
<g>
</g>
<g>
</g>
<g>
</g>
<g>
</g>
<g>
</g>
<g>
</g>
<g>
</g>
</svg>
