<?xml version="1.0" encoding="iso-8859-1"?>
<!-- Generator: Adobe Illustrator 18.0.0, SVG Export Plug-In . SVG Version: 6.00 Build 0)  -->
<!DOCTYPE svg PUBLIC "-//W3C//DTD SVG 1.1//EN" "http://www.w3.org/Graphics/SVG/1.1/DTD/svg11.dtd">
<svg version="1.1" id="Capa_1" xmlns="http://www.w3.org/2000/svg" xmlns:xlink="http://www.w3.org/1999/xlink" x="0px" y="0px"
	 viewBox="0 0 473.212 473.212" style="enable-background:new 0 0 473.212 473.212;" xml:space="preserve">
<g>
	<path d="M157.854,117.763h157.505c2.157,0,4.136-1.217,5.107-3.143c0.971-1.933,0.778-4.243-0.509-5.977L241.204,2.317
		C240.126,0.861,238.416,0,236.606,0c-1.81,0-3.52,0.861-4.599,2.317l-78.753,106.326c-1.286,1.733-1.479,4.044-0.508,5.977
		C153.717,116.546,155.697,117.763,157.854,117.763z"/>
	<path d="M472.561,262.272c-0.006-3.359-2.732-6.08-6.092-6.08h-17.741c-3.365,0-6.092,2.728-6.092,6.092v13.059
		c0,2.546-2.064,4.609-4.609,4.609h-8.588c-2.546,0-4.61-2.064-4.61-4.609v-13.059c0-3.364-2.728-6.092-6.092-6.092h-17.745
		c-3.365,0-6.092,2.728-6.092,6.092v13.059c0,2.546-2.064,4.609-4.61,4.609h-8.557c-2.545,0-4.609-2.064-4.609-4.609v-13.059
		c0-3.364-2.728-6.092-6.092-6.092h-17.762c-3.365,0-6.092,2.728-6.092,6.092v59.398h-57.218v-76.943l21.804-23.129v-79.061
		c0-3.166-2.557-5.724-5.723-5.724h-138.86c-3.165,0-5.722,2.558-5.722,5.724v79.061l21.797,23.129v76.943h-57.28l-0.322-59.431
		c-0.018-3.353-2.74-6.06-6.092-6.06h-17.537c-3.332,0-6.046,2.678-6.092,6.01l-0.18,13.203c-0.034,2.522-2.088,4.547-4.609,4.547
		h-8.619c-2.545,0-4.609-2.064-4.609-4.609v-13.059c0-3.364-2.728-6.092-6.092-6.092H54.076c-3.365,0-6.092,2.728-6.092,6.092
		v13.059c0,2.546-2.064,4.609-4.61,4.609h-8.589c-2.545,0-4.609-2.064-4.609-4.609v-13.059c0-3.364-2.727-6.092-6.092-6.092H6.338
		c-3.365,0-6.092,2.728-6.092,6.092v210.929h472.721L472.561,262.272z M83.183,393.079H43.101v-62.817
		c0-11.067,8.973-20.041,20.041-20.041c11.068,0,20.041,8.974,20.041,20.041V393.079z M256.647,250.223h-40.081v-62.817
		c0-11.068,8.974-20.042,20.041-20.042s20.04,8.974,20.04,20.042V250.223z M430.111,393.079h-40.08v-62.817
		c0-11.067,8.973-20.041,20.04-20.041c11.067,0,20.04,8.974,20.04,20.041V393.079z"/>
</g>
<g>
</g>
<g>
</g>
<g>
</g>
<g>
</g>
<g>
</g>
<g>
</g>
<g>
</g>
<g>
</g>
<g>
</g>
<g>
</g>
<g>
</g>
<g>
</g>
<g>
</g>
<g>
</g>
<g>
</g>
</svg>
