<?xml version="1.0" encoding="iso-8859-1"?>
<!-- Generator: Adobe Illustrator 18.0.0, SVG Export Plug-In . SVG Version: 6.00 Build 0)  -->
<!DOCTYPE svg PUBLIC "-//W3C//DTD SVG 1.1//EN" "http://www.w3.org/Graphics/SVG/1.1/DTD/svg11.dtd">
<svg version="1.1" id="Capa_1" xmlns="http://www.w3.org/2000/svg" xmlns:xlink="http://www.w3.org/1999/xlink" x="0px" y="0px"
	 viewBox="0 0 491.647 491.647" style="enable-background:new 0 0 491.647 491.647;" xml:space="preserve">
<g>
	<path d="M28.447,155.268h112.589c2.865,0,5.52-1.472,7.049-3.889c1.52-2.424,1.696-5.465,0.457-8.042L92.248,26.131
		c-1.385-2.889-4.305-4.722-7.506-4.722c-3.201,0-6.122,1.833-7.506,4.722L20.941,143.337c-1.24,2.577-1.064,5.618,0.456,8.042
		C22.926,153.796,25.583,155.268,28.447,155.268z"/>
	<path d="M350.61,155.268H463.2c2.864,0,5.521-1.472,7.05-3.889c1.52-2.424,1.696-5.465,0.457-8.042L414.411,26.131
		c-1.385-2.889-4.305-4.722-7.506-4.722c-3.201,0-6.122,1.833-7.506,4.722l-56.294,117.206c-1.24,2.577-1.064,5.618,0.456,8.042
		C345.089,153.796,347.746,155.268,350.61,155.268z"/>
	<path d="M483.317,180.715h-24.311c-4.593,0-8.322,3.729-8.322,8.322v31.128c0,1.416-1.152,2.569-2.569,2.569h-19.108
		c-1.416,0-2.569-1.153-2.569-2.569v-31.128c0-4.593-3.729-8.322-8.331-8.322h-24.301c-4.602,0-8.331,3.729-8.331,8.322v31.128
		c0,1.416-1.153,2.569-2.561,2.569h-17.236c-1.417,0-2.561-1.153-2.561-2.569v-31.128c0-4.593-3.737-8.322-8.331-8.322h-24.31
		c-4.593,0-8.322,3.729-8.322,8.322v33.697v18.156c0,4.601,3.729,8.33,8.322,8.33h15.724v64.633h-13.923v-25.895
		c0-4.601-3.729-8.331-8.322-8.331h-25.159c-4.593,0-8.323,3.729-8.323,8.331v25.895h-23.75v-25.895
		c0-4.601-3.729-8.331-8.322-8.331h-25.159c-4.593,0-8.322,3.729-8.322,8.331v25.895h-23.75v-25.895
		c0-4.601-3.729-8.331-8.322-8.331h-25.16c-4.592,0-8.321,3.729-8.321,8.331v25.895H145.43V249.22h15.732
		c4.593,0,8.33-3.729,8.33-8.33v-18.156v-33.697c0-4.593-3.729-8.322-8.33-8.322h-24.311c-4.593,0-8.322,3.729-8.322,8.322v31.128
		c0,1.416-1.153,2.569-2.568,2.569h-19.109c-1.417,0-2.569-1.153-2.569-2.569v-31.128c0-4.593-3.729-8.322-8.329-8.322H71.65
		c-4.602,0-8.33,3.729-8.33,8.322v31.128c0,1.416-1.145,2.569-2.561,2.569H43.523c-1.416,0-2.56-1.153-2.56-2.569v-31.128
		c0-4.593-3.737-8.322-8.33-8.322H8.322c-4.594,0-8.322,3.729-8.322,8.322v33.697v18.156c0,4.601,3.728,8.33,8.322,8.33h15.724
		v221.017h103.644h17.74h67.138v-44.94c0-18.365,14.892-33.256,33.256-33.256c18.364,0,33.256,14.892,33.256,33.256v44.94h67.121
		h17.757h103.627V249.22h15.732c4.592,0,8.329-3.729,8.329-8.33v-18.156v-33.697C491.647,184.444,487.91,180.715,483.317,180.715z"
		/>
</g>
<g>
</g>
<g>
</g>
<g>
</g>
<g>
</g>
<g>
</g>
<g>
</g>
<g>
</g>
<g>
</g>
<g>
</g>
<g>
</g>
<g>
</g>
<g>
</g>
<g>
</g>
<g>
</g>
<g>
</g>
</svg>
