<?xml version="1.0" encoding="iso-8859-1"?>
<!-- Generator: Adobe Illustrator 18.0.0, SVG Export Plug-In . SVG Version: 6.00 Build 0)  -->
<!DOCTYPE svg PUBLIC "-//W3C//DTD SVG 1.1//EN" "http://www.w3.org/Graphics/SVG/1.1/DTD/svg11.dtd">
<svg version="1.1" id="Capa_1" xmlns="http://www.w3.org/2000/svg" xmlns:xlink="http://www.w3.org/1999/xlink" x="0px" y="0px"
	 viewBox="0 0 487.415 487.415" style="enable-background:new 0 0 487.415 487.415;" xml:space="preserve">
<g>
	<path d="M185.457,248.064h86.857c5.564,0,10.082-4.51,10.082-10.074c0-5.563-4.518-10.073-10.082-10.073h-2.889L236.37,113.682
		c4.134-1.253,7.205-4.948,7.205-9.489c0-5.402-4.285-9.735-9.633-9.981V67.748l81.725-20.938c0.953-0.238,1.628-1.099,1.628-2.082
		c0-0.984-0.675-1.845-1.628-2.082L233.927,21.7v-9.713c0-2.781-2.26-5.04-5.041-5.04c-2.781,0.008-5.041,2.259-5.041,5.04
		l0.016,82.217c-5.363,0.23-9.664,4.572-9.664,9.989c0,4.549,3.07,8.245,7.221,9.497l-33.041,114.228h-2.919
		c-5.562,0-10.081,4.51-10.081,10.073C175.376,243.554,179.895,248.064,185.457,248.064z"/>
	<path d="M15.339,358.657h86.857c5.563,0,10.08-4.51,10.08-10.073c0-5.563-4.518-10.073-10.08-10.073h-2.922L66.235,224.283
		c4.149-1.252,7.223-4.949,7.223-9.497c0-5.409-4.304-9.751-9.65-9.989v-26.463l81.71-20.931c0.95-0.238,1.628-1.098,1.628-2.083
		c0-0.983-0.678-1.843-1.628-2.082L63.808,132.3v-9.72c0-2.782-2.26-5.04-5.041-5.04c-2.781,0-5.043,2.259-5.043,5.04v82.216
		c-5.348,0.238-9.65,4.58-9.65,9.989c0,4.548,3.075,8.245,7.225,9.497L18.257,338.51h-2.918c-5.564,0-10.083,4.51-10.083,10.073
		C5.256,354.147,9.774,358.657,15.339,358.657z"/>
	<path d="M485.786,153.238l-81.71-20.938v-9.72c0-2.782-2.261-5.04-5.04-5.04c-2.783,0-5.041,2.259-5.041,5.04v82.216
		c-5.348,0.238-9.65,4.58-9.65,9.989c0,4.548,3.072,8.245,7.223,9.497l-33.04,114.228h-2.921c-5.563,0-10.08,4.51-10.08,10.073
		c0,5.564,4.518,10.073,10.08,10.073h86.858c5.563,0,10.079-4.51,10.079-10.073c0-5.563-4.517-10.073-10.079-10.073h-2.921
		l-33.04-114.228c4.149-1.252,7.223-4.949,7.223-9.497c0-5.409-4.304-9.751-9.65-9.989v-26.463l81.71-20.931
		c0.953-0.238,1.629-1.098,1.629-2.083C487.415,154.337,486.739,153.477,485.786,153.238z"/>
	<path d="M446.815,412.406h-11.238c4.136-1.261,7.195-4.949,7.195-9.49c0-5.563-4.52-10.074-10.082-10.074v-21.138h-67.31v21.138
		c-5.563,0-10.081,4.512-10.081,10.074c0,4.541,3.06,8.229,7.192,9.49h-21.438l-24.527-69.985c-2.49-7.13-8.205-12.662-15.414-14.93
		l-38.571-12.132v-12.963c5.564,0,10.081-4.511,10.081-10.073c0-5.564-4.518-10.073-10.081-10.073v-21.138h-67.31v21.138
		c-5.564,0-10.082,4.51-10.082,10.073c0,5.563,4.518,10.073,10.082,10.073v12.963l-38.573,12.132
		c-7.208,2.268-12.924,7.8-15.415,14.93l-24.526,69.985H95.31c4.135-1.261,7.193-4.949,7.193-9.49
		c0-5.563-4.519-10.074-10.081-10.074v-21.138h-67.31v21.138c-5.564,0-10.084,4.512-10.084,10.074c0,4.541,3.061,8.229,7.193,9.49
		H11.021C4.933,412.406,0,417.339,0,423.431v46.012c0,6.093,4.933,11.025,11.021,11.025h435.795c6.1,0,11.031-4.933,11.031-11.025
		v-46.012C457.847,417.339,452.915,412.406,446.815,412.406z M249.586,420.927h-41.34v-34.732c0-11.418,9.251-20.67,20.671-20.67
		c11.418,0,20.669,9.252,20.669,20.67V420.927z"/>
</g>
<g>
</g>
<g>
</g>
<g>
</g>
<g>
</g>
<g>
</g>
<g>
</g>
<g>
</g>
<g>
</g>
<g>
</g>
<g>
</g>
<g>
</g>
<g>
</g>
<g>
</g>
<g>
</g>
<g>
</g>
</svg>
