<?xml version="1.0" encoding="iso-8859-1"?>
<!-- Generator: Adobe Illustrator 18.0.0, SVG Export Plug-In . SVG Version: 6.00 Build 0)  -->
<!DOCTYPE svg PUBLIC "-//W3C//DTD SVG 1.1//EN" "http://www.w3.org/Graphics/SVG/1.1/DTD/svg11.dtd">
<svg version="1.1" id="Capa_1" xmlns="http://www.w3.org/2000/svg" xmlns:xlink="http://www.w3.org/1999/xlink" x="0px" y="0px"
	 viewBox="0 0 485.872 485.872" style="enable-background:new 0 0 485.872 485.872;" xml:space="preserve">
<g>
	<path d="M356.821,382.524c-1.866-2.102-4.542-3.301-7.34-3.301H136.423c-2.801,0-5.474,1.199-7.342,3.301l-29.59,33.333
		c-3.654,4.13-5.684,9.451-5.684,14.972v36.61c0,10.182,8.259,18.433,18.434,18.433h261.417c10.176,0,18.435-8.251,18.435-18.433
		v-36.61c0-5.522-2.028-10.842-5.685-14.972L356.821,382.524z"/>
	<path d="M389.501,2.841C387.683,1.022,385.218,0,382.643,0h-15.647c-5.345,0-9.677,4.331-9.677,9.675v14.232
		c0,5.345-4.329,9.676-9.676,9.676h-11.558c-5.344,0-9.676-4.331-9.676-9.676V9.675c0-5.344-4.332-9.675-9.676-9.675h-15.682
		c-5.342,0-9.674,4.331-9.674,9.675v14.232c0,5.345-4.332,9.676-9.676,9.676h-11.559c-5.348,0-9.678-4.331-9.678-9.676V9.675
		c0-5.344-4.329-9.675-9.676-9.675h-15.68c-5.346,0-9.676,4.331-9.676,9.675v14.232c0,5.345-4.33,9.676-9.676,9.676h-11.559
		c-5.346,0-9.676-4.331-9.676-9.676V9.675c0-5.344-4.331-9.675-9.676-9.675h-15.682c-5.344,0-9.674,4.331-9.674,9.675v14.232
		c0,5.345-4.332,9.676-9.676,9.676h-11.559c-5.348,0-9.676-4.331-9.676-9.676V9.675c0-5.344-4.33-9.675-9.678-9.675h-15.679
		c-5.346,0-9.675,4.331-9.675,9.675v52.5c0,19.286,12.122,36.497,30.299,42.985l15.873,5.667v228.431
		c0,5.426,4.396,9.828,9.818,9.828h186.816c5.425,0,9.818-4.402,9.818-9.828V110.827l15.666-5.595
		c18.112-6.463,30.234-23.593,30.297-42.823c0.066-18.458,0.147-40.369,0.18-52.701C392.336,7.132,391.322,4.668,389.501,2.841z
		 M280.913,232.947H204.99v-69.009c0-20.962,16.984-37.954,37.977-37.954c20.963,0,37.947,16.993,37.947,37.954V232.947z"/>
</g>
<g>
</g>
<g>
</g>
<g>
</g>
<g>
</g>
<g>
</g>
<g>
</g>
<g>
</g>
<g>
</g>
<g>
</g>
<g>
</g>
<g>
</g>
<g>
</g>
<g>
</g>
<g>
</g>
<g>
</g>
</svg>
