<?xml version="1.0" encoding="iso-8859-1"?>
<!-- Generator: Adobe Illustrator 18.0.0, SVG Export Plug-In . SVG Version: 6.00 Build 0)  -->
<!DOCTYPE svg PUBLIC "-//W3C//DTD SVG 1.1//EN" "http://www.w3.org/Graphics/SVG/1.1/DTD/svg11.dtd">
<svg version="1.1" id="Capa_1" xmlns="http://www.w3.org/2000/svg" xmlns:xlink="http://www.w3.org/1999/xlink" x="0px" y="0px"
	 viewBox="0 0 487.062 487.062" style="enable-background:new 0 0 487.062 487.062;" xml:space="preserve">
<g>
	<path d="M387.271,451.586H99.791c-5.69,0-10.314,4.621-10.314,10.314v14.848c0,5.692,4.624,10.313,10.314,10.313h287.479
		c5.693,0,10.314-4.621,10.314-10.313v-14.848C397.585,456.208,392.964,451.586,387.271,451.586z"/>
	<path d="M93.889,431.543c1.957,2.348,4.857,3.695,7.911,3.695h283.466c3.054,0,5.954-1.348,7.91-3.695
		c1.959-2.339,2.786-5.425,2.251-8.431l-37.361-209.461h8.22c5.693,0,10.315-4.621,10.315-10.315v-82.623h1.591
		c8.886,0,16.081-7.196,16.081-16.081V8.503c0-4.694-3.809-8.503-8.502-8.503h-36.89c-4.694,0-8.504,3.809-8.504,8.503v28.775
		c0,3.037-2.462,5.499-5.499,5.499h-17.63c-3.037,0-5.499-2.462-5.499-5.499V8.503c0-4.694-3.81-8.503-8.506-8.503h-36.888
		c-4.694,0-8.503,3.809-8.503,8.503v28.775c0,3.037-2.462,5.499-5.499,5.499h-17.64c-3.037,0-5.498-2.462-5.498-5.499V8.503
		c0-4.694-3.809-8.503-8.502-8.503h-36.891c-4.694,0-8.504,3.809-8.504,8.503v28.775c0,3.037-2.462,5.499-5.498,5.499h-17.632
		c-3.037,0-5.499-2.462-5.499-5.499V8.503c0-4.694-3.809-8.503-8.503-8.503h-36.888c-4.696,0-8.505,3.809-8.505,8.503v96.13
		c0,8.885,7.197,16.081,16.082,16.081h1.592v82.623c0,5.694,4.621,10.315,10.315,10.315H129L91.64,423.112
		C91.103,426.118,91.932,429.204,93.889,431.543z M187.393,286.415c0-3.469,2.819-6.287,6.288-6.287h12.426v-83.329
		c0-20.669,16.755-37.425,37.424-37.425s37.427,16.755,37.427,37.425v83.329h12.426c3.467,0,6.285,2.818,6.285,6.287v17.843
		c0,3.469-2.818,6.286-6.285,6.286h-99.704c-3.469,0-6.288-2.817-6.288-6.286V286.415z"/>
</g>
<g>
</g>
<g>
</g>
<g>
</g>
<g>
</g>
<g>
</g>
<g>
</g>
<g>
</g>
<g>
</g>
<g>
</g>
<g>
</g>
<g>
</g>
<g>
</g>
<g>
</g>
<g>
</g>
<g>
</g>
</svg>
