<?xml version="1.0" encoding="iso-8859-1"?>
<!-- Generator: Adobe Illustrator 18.0.0, SVG Export Plug-In . SVG Version: 6.00 Build 0)  -->
<!DOCTYPE svg PUBLIC "-//W3C//DTD SVG 1.1//EN" "http://www.w3.org/Graphics/SVG/1.1/DTD/svg11.dtd">
<svg version="1.1" id="Capa_1" xmlns="http://www.w3.org/2000/svg" xmlns:xlink="http://www.w3.org/1999/xlink" x="0px" y="0px"
	 viewBox="0 0 491.699 491.699" style="enable-background:new 0 0 491.699 491.699;" xml:space="preserve">
<path d="M436.221,0H393.52c-8.013,0-14.501,6.49-14.501,14.502v17.237c0,8.011-6.49,14.501-14.502,14.501h-11.973
	c-8.01,0-14.5-6.49-14.5-14.501V14.502C338.043,6.49,331.552,0,323.542,0h-42.704c-8.01,0-14.502,6.49-14.502,14.502v17.237
	c0,8.011-6.488,14.501-14.501,14.501h-11.972c-8.011,0-14.5-6.49-14.5-14.501V14.502C225.363,6.49,218.871,0,210.86,0h-42.703
	c-8.011,0-14.501,6.49-14.501,14.502v17.237c0,8.011-6.491,14.501-14.501,14.501h-11.973c-8.011,0-14.502-6.49-14.502-14.501V14.502
	C112.68,6.49,106.191,0,98.18,0H55.476c-8.011,0-14.501,6.49-14.501,14.502v31.739v46.233v4.369
	c0,19.431,15.757,35.189,35.189,35.189h0.664v359.667h131.279v-56.828c0-20.84,16.896-37.734,37.743-37.734
	c20.838,0,37.733,16.894,37.733,37.734v56.828h131.288V132.032h0.664c19.433,0,35.19-15.758,35.19-35.189v-4.369V46.241V14.502
	C450.725,6.49,444.233,0,436.221,0z M198.904,348.415h-53.619v-34.3c0-14.806,12.004-26.81,26.809-26.81
	c14.807,0,26.81,12.004,26.81,26.81V348.415z M198.904,217.295h-53.619v-34.3c0-14.806,12.004-26.81,26.809-26.81
	c14.807,0,26.81,12.004,26.81,26.81V217.295z M346.413,348.415h-53.618v-34.3c0-14.806,12.003-26.81,26.809-26.81
	c14.806,0,26.809,12.004,26.809,26.81V348.415z M346.413,217.295h-53.618v-34.3c0-14.806,12.003-26.81,26.809-26.81
	c14.806,0,26.809,12.004,26.809,26.81V217.295z"/>
<g>
</g>
<g>
</g>
<g>
</g>
<g>
</g>
<g>
</g>
<g>
</g>
<g>
</g>
<g>
</g>
<g>
</g>
<g>
</g>
<g>
</g>
<g>
</g>
<g>
</g>
<g>
</g>
<g>
</g>
</svg>
