<?xml version="1.0" encoding="iso-8859-1"?>
<!-- Generator: Adobe Illustrator 18.0.0, SVG Export Plug-In . SVG Version: 6.00 Build 0)  -->
<!DOCTYPE svg PUBLIC "-//W3C//DTD SVG 1.1//EN" "http://www.w3.org/Graphics/SVG/1.1/DTD/svg11.dtd">
<svg version="1.1" id="Capa_1" xmlns="http://www.w3.org/2000/svg" xmlns:xlink="http://www.w3.org/1999/xlink" x="0px" y="0px"
	 viewBox="0 0 493.703 493.703" style="enable-background:new 0 0 493.703 493.703;" xml:space="preserve">
<path d="M469.452,0h-70.809c-13.396,0-24.251,10.856-24.251,24.251v90.673c0,4.13-3.343,7.474-7.473,7.474H314.06
	c-4.13,0-7.474-3.343-7.474-7.474V24.436C306.587,10.944,295.643,0,282.151,0h-70.608c-13.492,0-24.436,10.944-24.436,24.436v90.488
	c0,4.13-3.343,7.474-7.473,7.474h-52.85c-4.13,0-7.473-3.343-7.473-7.474V24.436C119.312,10.944,108.367,0,94.875,0H24.251
	C10.856,0,0,10.856,0,24.251v98.147v52.89c0,12.841,10.004,23.239,22.628,24.091v62.307c0,13.395,10.855,24.252,24.25,24.252h39.125
	v207.766h321.694V285.937h39.125c13.395,0,24.251-10.856,24.251-24.252v-62.307c12.624-0.852,22.628-11.25,22.628-24.091v-52.89
	V24.251C493.703,10.856,482.847,0,469.452,0z M297.596,372.222c0,7.473-6.059,13.532-13.532,13.532h-74.426
	c-7.472,0-13.532-6.059-13.532-13.532v-87.885c0-28.025,22.719-50.745,50.745-50.745c28.025,0,50.745,22.719,50.745,50.745V372.222z
	"/>
<g>
</g>
<g>
</g>
<g>
</g>
<g>
</g>
<g>
</g>
<g>
</g>
<g>
</g>
<g>
</g>
<g>
</g>
<g>
</g>
<g>
</g>
<g>
</g>
<g>
</g>
<g>
</g>
<g>
</g>
</svg>
